<?xml version="1.0" encoding="UTF-8" standalone="no"?><!DOCTYPE svg PUBLIC "-//W3C//DTD SVG 1.1//EN" "http://www.w3.org/Graphics/SVG/1.1/DTD/svg11.dtd"><svg width="100%" height="100%" viewBox="0 0 72 72" version="1.1" xmlns="http://www.w3.org/2000/svg" xmlns:xlink="http://www.w3.org/1999/xlink" xml:space="preserve" xmlns:serif="http://www.serif.com/" style="fill-rule:evenodd;clip-rule:evenodd;stroke-linecap:round;stroke-linejoin:round;stroke-miterlimit:10;"><g><path d="M57.036,69.649l-42.423,0c-6.966,0 -12.613,-5.647 -12.613,-12.613l0,-42.423c0,-6.966 5.647,-12.613 12.613,-12.613l42.423,0c6.966,0 12.612,5.647 12.612,12.613l0,42.423c0,6.966 -5.646,12.613 -12.612,12.613Z" style="fill:none;fill-rule:nonzero;stroke:#000;stroke-width:4px;"/><path d="M43.359,21.205l3.767,0l0,-8.198l-5.674,-0.007c-8.038,0 -11.853,4.784 -11.853,11.595l0,6.452l-6.295,0l0,7.79l6.295,0l0,19.811l9.442,0l0,-19.811l6.295,0l1.787,-7.787l-8.082,0l0,-5.319c0,-2.177 1.189,-4.526 4.318,-4.526" style="fill-rule:nonzero;"/></g></svg>