<?xml version="1.0" encoding="UTF-8" standalone="no"?><!DOCTYPE svg PUBLIC "-//W3C//DTD SVG 1.1//EN" "http://www.w3.org/Graphics/SVG/1.1/DTD/svg11.dtd"><svg width="100%" height="100%" viewBox="0 0 72 72" version="1.1" xmlns="http://www.w3.org/2000/svg" xmlns:xlink="http://www.w3.org/1999/xlink" xml:space="preserve" xmlns:serif="http://www.serif.com/" style="fill-rule:evenodd;clip-rule:evenodd;stroke-linecap:round;stroke-linejoin:round;stroke-miterlimit:10;"><g><path d="M35.841,18.841c-2.921,0 -5.842,-0.056 -8.76,0.013c-4.56,0.107 -7.364,2.243 -8.194,6.17c-0.176,0.833 -0.307,1.694 -0.311,2.544c-0.027,5.528 -0.101,11.059 0.012,16.585c0.112,5.499 2.893,8.44 8.197,8.635c5.992,0.22 11.994,0.202 17.986,0.004c4.419,-0.146 7.045,-2.273 7.889,-6.092c0.152,-0.682 0.294,-1.383 0.298,-2.076c0.032,-6.303 0.378,-12.614 -0.191,-18.905c-0.337,-3.727 -2.834,-6.161 -6.547,-6.67c-3.45,-0.474 -6.921,-0.137 -10.379,-0.208m-21.326,7.177c0.374,-1.948 0.722,-3.903 1.783,-5.635c2.422,-3.952 6.208,-5.469 10.573,-5.575c5.953,-0.146 11.915,-0.143 17.868,0.002c4.042,0.098 7.64,1.429 10.101,4.932c1.584,2.256 2.175,4.838 2.215,7.507c0.087,5.722 0.127,11.448 -0.005,17.168c-0.106,4.607 -1.708,8.538 -6.021,10.881c-1.993,1.081 -4.177,1.551 -6.406,1.577c-5.878,0.068 -11.76,0.125 -17.635,-0.009c-4.409,-0.101 -8.24,-1.589 -10.689,-5.582c-1.062,-1.732 -1.41,-3.688 -1.784,-5.636l0,-19.63Z" style="fill-rule:nonzero;"/><path d="M42.727,35.851c0.007,-3.78 -3.104,-6.876 -6.931,-6.896c-3.8,-0.02 -6.959,3.092 -6.965,6.862c-0.006,3.78 3.106,6.876 6.931,6.896c3.801,0.02 6.959,-3.091 6.965,-6.862m4.095,0.054c-0.018,5.939 -4.946,10.82 -10.997,10.893c-6.071,0.073 -11.106,-4.939 -11.088,-11.035c0.017,-5.993 5.133,-11.006 11.113,-10.892c6.137,0.116 10.989,4.997 10.972,11.034" style="fill-rule:nonzero;"/><path d="M47.122,21.986c1.465,-0.019 2.703,1.194 2.695,2.638c-0.007,1.385 -1.195,2.571 -2.614,2.612c-1.46,0.042 -2.726,-1.149 -2.751,-2.588c-0.026,-1.454 1.166,-2.643 2.67,-2.662" style="fill-rule:nonzero;"/><path d="M57.036,69.648l-42.423,0c-6.966,0 -12.613,-5.647 -12.613,-12.613l0,-42.423c0,-6.965 5.647,-12.612 12.613,-12.612l42.423,0c6.966,0 12.612,5.647 12.612,12.612l0,42.423c0,6.966 -5.646,12.613 -12.612,12.613Z" style="fill:none;fill-rule:nonzero;stroke:#000;stroke-width:4px;"/></g></svg>