<?xml version="1.0" encoding="UTF-8" standalone="no"?><!DOCTYPE svg PUBLIC "-//W3C//DTD SVG 1.1//EN" "http://www.w3.org/Graphics/SVG/1.1/DTD/svg11.dtd"><svg width="100%" height="100%" viewBox="0 0 72 72" version="1.1" xmlns="http://www.w3.org/2000/svg" xmlns:xlink="http://www.w3.org/1999/xlink" xml:space="preserve" xmlns:serif="http://www.serif.com/" style="fill-rule:evenodd;clip-rule:evenodd;stroke-linecap:round;stroke-linejoin:round;stroke-miterlimit:10;"><g><rect x="18.745" y="28.233" width="7.591" height="24.67"/><path d="M44.554,28.612c-3.985,0 -6.262,2.277 -7.211,3.796l-0.19,0l-0.379,-3.227l-6.832,0c0,2.088 0.19,4.555 0.19,7.402l0,16.32l7.59,0l0,-13.474c0,-0.759 0,-1.328 0.19,-1.898c0.569,-1.328 1.518,-3.036 3.606,-3.036c2.657,0 3.795,2.277 3.795,5.314l0,13.094l7.591,0l0,-14.043c0,-7.022 -3.606,-10.248 -8.35,-10.248" style="fill-rule:nonzero;"/><path d="M57.036,69.648l-42.423,0c-6.966,0 -12.613,-5.647 -12.613,-12.613l0,-42.423c0,-6.965 5.647,-12.612 12.613,-12.612l42.423,0c6.966,0 12.613,5.647 12.613,12.612l0,42.423c0,6.966 -5.647,12.613 -12.613,12.613Z" style="fill:none;fill-rule:nonzero;stroke:#000;stroke-width:4px;"/><path d="M26.336,22.54c0,2.087 -1.329,3.795 -3.795,3.795c-2.278,0 -3.796,-1.708 -3.796,-3.606c0,-2.087 1.518,-3.984 3.796,-3.984c2.277,0 3.795,1.708 3.795,3.795" style="fill-rule:nonzero;"/></g></svg>