<?xml version="1.0" encoding="UTF-8" standalone="no"?><!DOCTYPE svg PUBLIC "-//W3C//DTD SVG 1.1//EN" "http://www.w3.org/Graphics/SVG/1.1/DTD/svg11.dtd"><svg width="100%" height="100%" viewBox="0 0 72 72" version="1.1" xmlns="http://www.w3.org/2000/svg" xmlns:xlink="http://www.w3.org/1999/xlink" xml:space="preserve" xmlns:serif="http://www.serif.com/" style="fill-rule:evenodd;clip-rule:evenodd;stroke-linecap:round;stroke-linejoin:round;stroke-miterlimit:10;"><g><path d="M44.245,35.624c0.02,0.103 0.026,0.205 0.019,0.309c0.023,-0.103 0.023,-0.207 -0.019,-0.309" style="fill-rule:nonzero;"/><path d="M43.593,36.939l-9.981,4.825c-0.803,0.387 -1.735,-0.197 -1.735,-1.089l0,-9.429c0,-0.883 0.914,-1.468 1.715,-1.098l9.981,4.605c0.387,0.178 0.605,0.512 0.672,0.872c0.042,0.102 0.042,0.206 0.019,0.309c-0.027,0.404 -0.245,0.798 -0.671,1.005m-7.049,-18.147c-21.74,0 -22.12,1.933 -22.12,17.033c0,15.1 0.38,17.033 22.12,17.033c21.741,0 22.121,-1.933 22.121,-17.033c0,-15.1 -0.38,-17.033 -22.121,-17.033" style="fill-rule:nonzero;"/><path d="M57.036,69.649l-42.423,0c-6.966,0 -12.613,-5.647 -12.613,-12.613l0,-42.423c0,-6.966 5.647,-12.613 12.613,-12.613l42.423,0c6.966,0 12.613,5.647 12.613,12.613l0,42.423c0,6.966 -5.647,12.613 -12.613,12.613Z" style="fill:none;fill-rule:nonzero;stroke:#000;stroke-width:4px;"/></g></svg>